<svg width="20" height="19" viewBox="0 0 20 19" fill="none" xmlns="http://www.w3.org/2000/svg">
<path fill-rule="evenodd" clip-rule="evenodd" d="M5.65344 1.58334C3.68168 1.58334 2.08325 3.18177 2.08325 5.15353V13.8465C2.08325 15.8182 3.68168 17.4167 5.65344 17.4167H9.88118C10.2526 17.4167 10.5537 17.1156 10.5537 16.7442C10.5537 16.3727 10.2526 16.0716 9.88118 16.0716H5.65344C4.42454 16.0716 3.42833 15.0754 3.42833 13.8465V5.15353C3.42833 3.92463 4.42454 2.92842 5.65344 2.92842H14.1089C15.3378 2.92842 16.334 3.92463 16.334 5.15353V9.50001C16.334 9.87146 16.6351 10.1725 17.0066 10.1725C17.378 10.1725 17.6791 9.87146 17.6791 9.50001V5.15353C17.6791 3.18177 16.0806 1.58334 14.1089 1.58334H5.65344ZM6.04362 8.82733C5.67219 8.82733 5.37108 9.1284 5.37108 9.49985C5.37108 9.8713 5.67219 10.1724 6.04362 10.1724H8.41795C8.7894 10.1724 9.09047 9.8713 9.09047 9.49985C9.09047 9.1284 8.7894 8.82733 8.41795 8.82733H6.04362ZM5.37108 6.33493C5.37108 5.9635 5.67219 5.66239 6.04362 5.66239H10.791C11.1624 5.66239 11.4635 5.9635 11.4635 6.33493C11.4635 6.70637 11.1624 7.00747 10.791 7.00747H6.04362C5.67219 7.00747 5.37108 6.70637 5.37108 6.33493ZM15.8841 10.5222C15.4668 10.098 14.7902 10.098 14.3729 10.5222L11.3991 13.5455C11.17 13.7785 11.0573 14.1045 11.0925 14.4319L11.2626 16.0116C11.3069 16.4229 11.6263 16.7476 12.0308 16.7926L13.5847 16.9655C13.9067 17.0014 14.2274 16.8867 14.4565 16.6538L17.4303 13.6305C17.8475 13.2062 17.8475 12.5184 17.4303 12.0941L15.8841 10.5222ZM12.4324 14.413L15.1285 11.6719L16.2994 12.8623L13.6033 15.6034L12.5479 15.486L12.4324 14.413Z" fill="#01BF91"/>
</svg>
