<svg width="14" height="14" viewBox="0 0 14 14" fill="none" xmlns="http://www.w3.org/2000/svg">
<g clip-path="url(#clip0_186_393)">
<path fill-rule="evenodd" clip-rule="evenodd" d="M14 14H11.2V9.10068C11.2 7.75668 10.6071 7.00684 9.5438 7.00684C8.3867 7.00684 7.7 7.78818 7.7 9.10068V14H4.9V4.9H7.7V5.92334C7.7 5.92334 8.5785 4.38184 10.5581 4.38184C12.5384 4.38184 14 5.59027 14 8.09067V14ZM1.7094 3.44463C0.765101 3.44463 0 2.67327 0 1.72197C0 0.771373 0.765101 0 1.7094 0C2.653 0 3.4181 0.771373 3.4181 1.72197C3.4188 2.67327 2.653 3.44463 1.7094 3.44463ZM0 14H3.5V4.9H0V14Z" fill="#A1AEB6"/>
</g>
<defs>
<clipPath id="clip0_186_393">
<rect width="14" height="14" fill="white"/>
</clipPath>
</defs>
</svg>
