<svg width="18" height="19" viewBox="0 0 18 19" fill="none" xmlns="http://www.w3.org/2000/svg">
<g id="lock-password-svgrepo-com 1">
<path id="Vector" d="M6.75 12.5C6.75 12.9142 6.41422 13.25 6 13.25C5.58579 13.25 5.25 12.9142 5.25 12.5C5.25 12.0858 5.58579 11.75 6 11.75C6.41422 11.75 6.75 12.0858 6.75 12.5Z" fill="#7C9AAE"/>
<path id="Vector_2" d="M9.75 12.5C9.75 12.9142 9.41422 13.25 9 13.25C8.58577 13.25 8.25 12.9142 8.25 12.5C8.25 12.0858 8.58577 11.75 9 11.75C9.41422 11.75 9.75 12.0858 9.75 12.5Z" fill="#7C9AAE"/>
<path id="Vector_3" d="M12 13.25C12.4142 13.25 12.75 12.9142 12.75 12.5C12.75 12.0858 12.4142 11.75 12 11.75C11.5858 11.75 11.25 12.0858 11.25 12.5C11.25 12.9142 11.5858 13.25 12 13.25Z" fill="#7C9AAE"/>
<path id="Vector_4" fill-rule="evenodd" clip-rule="evenodd" d="M3.9375 6.5V7.47708C3.76738 7.48904 3.60704 7.50461 3.45619 7.52489C2.78111 7.61565 2.2127 7.80982 1.76126 8.26122C1.30982 8.71272 1.11566 9.28107 1.02489 9.95615C0.93747 10.6064 0.937485 11.4331 0.9375 12.4588V12.5412C0.937485 13.5669 0.93747 14.3936 1.02489 15.0438C1.11566 15.7189 1.30982 16.2873 1.76126 16.7387C2.2127 17.1902 2.78111 17.3844 3.45619 17.4751C4.10642 17.5625 4.93316 17.5625 5.95885 17.5625H12.0412C13.0669 17.5625 13.8936 17.5625 14.5438 17.4751C15.2189 17.3844 15.7873 17.1902 16.2388 16.7387C16.6902 16.2873 16.8844 15.7189 16.9751 15.0438C17.0625 14.3936 17.0625 13.5669 17.0625 12.5412V12.4588C17.0625 11.4331 17.0625 10.6064 16.9751 9.95615C16.8844 9.28107 16.6902 8.71272 16.2388 8.26122C15.7873 7.80982 15.2189 7.61565 14.5438 7.52489C14.3929 7.50461 14.2326 7.48904 14.0625 7.47708V6.5C14.0625 3.70406 11.7959 1.4375 9 1.4375C6.20406 1.4375 3.9375 3.70406 3.9375 6.5ZM9 2.5625C6.82538 2.5625 5.0625 4.32538 5.0625 6.5V7.44008C5.34262 7.43749 5.64114 7.43749 5.95874 7.4375H12.0412C12.3587 7.43749 12.6574 7.43749 12.9375 7.44008V6.5C12.9375 4.32538 11.1746 2.5625 9 2.5625ZM3.60609 8.63982C3.05576 8.71385 2.76433 8.84915 2.55676 9.05675C2.34919 9.26435 2.21385 9.55572 2.13986 10.1061C2.06369 10.6726 2.0625 11.4234 2.0625 12.5C2.0625 13.5765 2.06369 14.3274 2.13986 14.8939C2.21385 15.4443 2.34919 15.7356 2.55676 15.9432C2.76433 16.1508 3.05576 16.2861 3.60609 16.3602C4.1726 16.4363 4.92344 16.4375 6 16.4375H12C13.0765 16.4375 13.8274 16.4363 14.3939 16.3602C14.9443 16.2861 15.2356 16.1508 15.4432 15.9432C15.6508 15.7356 15.7861 15.4443 15.8602 14.8939C15.9363 14.3274 15.9375 13.5765 15.9375 12.5C15.9375 11.4234 15.9363 10.6726 15.8602 10.1061C15.7861 9.55572 15.6508 9.26435 15.4432 9.05675C15.2356 8.84915 14.9443 8.71385 14.3939 8.63982C13.8274 8.5637 13.0765 8.5625 12 8.5625H6C4.92344 8.5625 4.1726 8.5637 3.60609 8.63982Z" fill="#7C9AAE"/>
</g>
</svg>
