<svg width="18" height="18" viewBox="0 0 18 18" fill="none" xmlns="http://www.w3.org/2000/svg">
<g clip-path="url(#clip0_186_445)">
<path fill-rule="evenodd" clip-rule="evenodd" d="M7.22627 5.55158C7.00704 5.4263 6.7377 5.4272 6.5193 5.55394C6.30092 5.68067 6.1665 5.91408 6.1665 6.16658V11.8333C6.1665 12.0858 6.30092 12.3192 6.5193 12.4459C6.7377 12.5726 7.00704 12.5735 7.22627 12.4482L12.1846 9.61489C12.4053 9.48881 12.5415 9.25414 12.5415 8.99992C12.5415 8.7457 12.4053 8.51102 12.1846 8.38494L7.22627 5.55158ZM10.4055 8.99992L7.58317 10.6126V7.38717L10.4055 8.99992Z" fill="#A1AEB6"/>
<path fill-rule="evenodd" clip-rule="evenodd" d="M0.5 9C0.5 6.34394 0.5 5.01591 1.1764 4.08492C1.39484 3.78426 1.65926 3.51984 1.95992 3.30139C2.89091 2.625 4.21894 2.625 6.875 2.625H11.125C13.781 2.625 15.1091 2.625 16.0401 3.30139C16.3407 3.51984 16.6052 3.78426 16.8236 4.08492C17.5 5.01591 17.5 6.34394 17.5 9C17.5 11.656 17.5 12.9841 16.8236 13.9151C16.6052 14.2157 16.3407 14.4802 16.0401 14.6986C15.1091 15.375 13.781 15.375 11.125 15.375H6.875C4.21894 15.375 2.89091 15.375 1.95992 14.6986C1.65926 14.4802 1.39484 14.2157 1.1764 13.9151C0.5 12.9841 0.5 11.656 0.5 9ZM6.875 4.04167H11.125C12.4846 4.04167 13.3905 4.04361 14.0768 4.11798C14.7367 4.18947 15.0237 4.31401 15.2074 4.44751C15.3877 4.57858 15.5464 4.73722 15.6775 4.91762C15.811 5.10137 15.9355 5.3883 16.007 6.04816C16.0814 6.73452 16.0833 7.64042 16.0833 9C16.0833 10.3596 16.0814 11.2655 16.007 11.9518C15.9355 12.6117 15.811 12.8987 15.6775 13.0824C15.5464 13.2627 15.3877 13.4214 15.2074 13.5525C15.0237 13.686 14.7367 13.8105 14.0768 13.882C13.3905 13.9564 12.4846 13.9583 11.125 13.9583H6.875C5.51541 13.9583 4.60952 13.9564 3.92316 13.882C3.2633 13.8105 2.97637 13.686 2.79262 13.5525C2.61222 13.4214 2.45358 13.2627 2.32251 13.0824C2.18901 12.8987 2.06447 12.6117 1.99298 11.9518C1.91861 11.2655 1.91667 10.3596 1.91667 9C1.91667 7.64042 1.91861 6.73452 1.99298 6.04816C2.06447 5.3883 2.18901 5.10137 2.32251 4.91762C2.45358 4.73722 2.61222 4.57858 2.79262 4.44751C2.97637 4.31401 3.2633 4.18947 3.92316 4.11798C4.60952 4.04361 5.51541 4.04167 6.875 4.04167Z" fill="#A1AEB6"/>
</g>
<defs>
<clipPath id="clip0_186_445">
<rect width="17" height="17" fill="white" transform="translate(0.5 0.5)"/>
</clipPath>
</defs>
</svg>
