<svg width="35" height="26" viewBox="0 0 35 26" fill="none" xmlns="http://www.w3.org/2000/svg">
<g clip-path="url(#clip0_97_917)">
<path d="M29.6917 0.243652H5.30839C3.93153 0.247202 2.61228 0.798208 1.63995 1.77583C0.667616 2.75346 0.121577 4.07789 0.121582 5.45868V20.5005C0.121577 21.8813 0.667616 23.2057 1.63995 24.1833C2.61228 25.161 3.93153 25.712 5.30839 25.7155H29.6917C31.0686 25.712 32.3878 25.161 33.3602 24.1833C34.3325 23.2057 34.8785 21.8813 34.8785 20.5005V5.45868C34.8785 4.07789 34.3325 2.75346 33.3602 1.77583C32.3878 0.798208 31.0686 0.247202 29.6917 0.243652ZM29.6917 2.9249H29.9056L17.5001 11.9875L5.0945 2.9249H5.30839H29.6917ZM32.2049 20.5005C32.2049 21.1702 31.9406 21.8126 31.4696 22.2874C30.9987 22.7622 30.3595 23.0307 29.6917 23.0343H5.30839C4.64062 23.0307 4.00141 22.7622 3.53047 22.2874C3.05954 21.8126 2.79518 21.1702 2.79519 20.5005V5.45868C2.79826 5.18964 2.84336 4.92274 2.92887 4.66772L16.7247 14.7358C16.9537 14.9036 17.2299 14.994 17.5134 14.994C17.797 14.994 18.0732 14.9036 18.3021 14.7358L32.0846 4.66772C32.1701 4.92274 32.2152 5.18964 32.2183 5.45868L32.2049 20.5005Z" fill="#22C3F3"/>
</g>
<defs>
<clipPath id="clip0_97_917">
<rect width="35" height="26" fill="white"/>
</clipPath>
</defs>
</svg>
