<svg width="72" height="54" viewBox="0 0 72 54" fill="none" xmlns="http://www.w3.org/2000/svg">
<path d="M61.08 0.506348H10.92C8.08761 0.51372 5.37372 1.65812 3.3735 3.68857C1.37327 5.71902 0.249991 8.46977 0.25 11.3376V42.5783C0.249991 45.4461 1.37327 48.1968 3.3735 50.2273C5.37372 52.2577 8.08761 53.4021 10.92 53.4095H61.08C63.9124 53.4021 66.6263 52.2577 68.6265 50.2273C70.6267 48.1968 71.75 45.4461 71.75 42.5783V11.3376C71.75 8.46977 70.6267 5.71902 68.6265 3.68857C66.6263 1.65812 63.9124 0.51372 61.08 0.506348ZM61.08 6.0751H61.52L36 24.8975L10.48 6.0751H10.92H61.08ZM66.25 42.5783C66.25 43.9691 65.7062 45.3035 64.7374 46.2896C63.7686 47.2757 62.4537 47.8334 61.08 47.8407H10.92C9.54631 47.8334 8.23136 47.2757 7.26258 46.2896C6.2938 45.3035 5.74998 43.9691 5.75 42.5783V11.3376C5.7563 10.7788 5.8491 10.2245 6.025 9.69479L34.405 30.6054C34.876 30.9539 35.4442 31.1417 36.0275 31.1417C36.6108 31.1417 37.179 30.9539 37.65 30.6054L66.0025 9.69479C66.1784 10.2245 66.2712 10.7788 66.2775 11.3376L66.25 42.5783Z" fill="#DAF2FA"/>
</svg>
