<svg width="50" height="60" viewBox="0 0 50 60" fill="none" xmlns="http://www.w3.org/2000/svg">
<path d="M25 60L23.5 59C22.5 58.25 0 43 0 25C0 11.25 11.25 0 25 0C38.75 0 50 11.25 50 25C50 43 27.5 58.25 26.5 59L25 60ZM25 5C14 5 5 14 5 25C5 38 20.25 50.25 25 54C29.75 50.25 45 38 45 25C45 14 36 5 25 5ZM25 35C19.5 35 15 30.5 15 25C15 19.5 19.5 15 25 15C30.5 15 35 19.5 35 25C35 30.5 30.5 35 25 35ZM25 20C22.25 20 20 22.25 20 25C20 27.75 22.25 30 25 30C27.75 30 30 27.75 30 25C30 22.25 27.75 20 25 20Z" fill="#DAF2FA"/>
</svg>
