<svg width="32" height="32" viewBox="0 0 32 32" fill="none" xmlns="http://www.w3.org/2000/svg">
<g clip-path="url(#clip0_97_876)">
<path d="M15.9998 32L15.1998 31.4667C14.6665 31.0667 2.6665 22.9333 2.6665 13.3333C2.6665 6 8.6665 0 15.9998 0C23.3332 0 29.3332 6 29.3332 13.3333C29.3332 22.9333 17.3332 31.0667 16.7998 31.4667L15.9998 32ZM15.9998 2.66667C10.1332 2.66667 5.33317 7.46667 5.33317 13.3333C5.33317 20.2667 13.4665 26.8 15.9998 28.8C18.5332 26.8 26.6665 20.2667 26.6665 13.3333C26.6665 7.46667 21.8665 2.66667 15.9998 2.66667ZM15.9998 18.6667C13.0665 18.6667 10.6665 16.2667 10.6665 13.3333C10.6665 10.4 13.0665 8 15.9998 8C18.9332 8 21.3332 10.4 21.3332 13.3333C21.3332 16.2667 18.9332 18.6667 15.9998 18.6667ZM15.9998 10.6667C14.5332 10.6667 13.3332 11.8667 13.3332 13.3333C13.3332 14.8 14.5332 16 15.9998 16C17.4665 16 18.6665 14.8 18.6665 13.3333C18.6665 11.8667 17.4665 10.6667 15.9998 10.6667Z" fill="#22C3F3"/>
</g>
<defs>
<clipPath id="clip0_97_876">
<rect width="32" height="32" fill="white"/>
</clipPath>
</defs>
</svg>
