<svg width="56" height="56" viewBox="0 0 56 56" fill="none" xmlns="http://www.w3.org/2000/svg">
<path d="M38.1322 38.0632L39.4119 36.7161L36.3563 33.8138L35.0766 35.161L38.1322 38.0632ZM43.6226 36.1488L48.9901 39.2385L51.0925 35.5861L45.7249 32.4964L43.6226 36.1488ZM50.026 45.6439L46.0348 49.8458L49.0905 52.7481L53.0816 48.5461L50.026 45.6439ZM43.6335 51.1921C39.6019 51.5902 29.0822 51.2506 17.6639 39.2292L14.6083 42.1314C27.0526 55.2331 38.9234 55.8919 44.0474 55.3862L43.6335 51.1921ZM17.6639 39.2292C6.77384 27.7638 4.94715 18.0927 4.71946 13.8509L0.511252 14.0767C0.790097 19.2722 2.99608 29.9061 14.6083 42.1314L17.6639 39.2292ZM21.5279 20.5821L22.3337 19.7337L19.2781 16.8314L18.4723 17.6797L21.5279 20.5821ZM22.9667 9.17127L19.424 4.16051L15.983 6.59348L19.5257 11.6042L22.9667 9.17127ZM7.43304 3.08025L3.02322 7.72296L6.07879 10.6253L10.4886 5.98257L7.43304 3.08025ZM20.0001 19.1309C18.4723 17.6797 18.4704 17.6818 18.4684 17.6838C18.4678 17.6846 18.4658 17.6867 18.4645 17.6881C18.4618 17.6909 18.4591 17.6938 18.4563 17.6968C18.4508 17.7028 18.4451 17.709 18.4392 17.7155C18.4274 17.7284 18.4149 17.7424 18.4017 17.7575C18.3755 17.7878 18.3466 17.8223 18.3157 17.8614C18.254 17.9394 18.1841 18.0353 18.1108 18.1498C17.9638 18.3795 17.8044 18.682 17.6694 19.0614C17.3949 19.8328 17.2453 20.8543 17.4323 22.1301C17.7995 24.6365 19.4418 28.0071 23.7329 32.5248L26.7885 29.6226C22.7776 25.3996 21.7895 22.7988 21.602 21.5191C21.5115 20.9017 21.6035 20.5764 21.6398 20.4742C21.6602 20.4168 21.6736 20.4009 21.6605 20.4213C21.6542 20.4312 21.6416 20.4498 21.6203 20.4767C21.6097 20.4901 21.5969 20.5056 21.5816 20.5232C21.574 20.5319 21.5657 20.5412 21.5568 20.5511C21.5523 20.556 21.5477 20.561 21.5429 20.5662C21.5405 20.5688 21.538 20.5714 21.5355 20.574C21.5343 20.5754 21.5324 20.5774 21.5318 20.578C21.5299 20.58 21.5279 20.5821 20.0001 19.1309ZM23.7329 32.5248C28.0115 37.0293 31.2427 38.8002 33.7081 39.2005C34.9732 39.4059 35.9972 39.2418 36.7727 38.9362C37.1517 38.7867 37.4515 38.6111 37.6765 38.4515C37.7889 38.3717 37.8824 38.2961 37.9577 38.2301C37.9957 38.197 38.0288 38.1661 38.0578 38.138C38.0724 38.1242 38.0858 38.1107 38.0982 38.0984C38.1044 38.0922 38.1103 38.086 38.1159 38.0801C38.1187 38.0773 38.1215 38.0745 38.1243 38.0717C38.1257 38.0703 38.1277 38.068 38.1283 38.0674C38.1302 38.0652 38.1322 38.0632 36.6044 36.6121C35.0766 35.161 35.0785 35.159 35.0805 35.1571C35.0811 35.1562 35.083 35.1543 35.0842 35.1528C35.0867 35.1503 35.0892 35.1478 35.0917 35.1453C35.0968 35.1402 35.1016 35.1351 35.1061 35.1304C35.1156 35.1211 35.1246 35.1121 35.133 35.104C35.1499 35.0877 35.1653 35.0736 35.1788 35.0618C35.2055 35.0382 35.2255 35.023 35.2384 35.0141C35.2648 34.9952 35.262 35.0017 35.2263 35.0157C35.1721 35.0371 34.9167 35.1273 34.3837 35.0407C33.2526 34.857 30.8123 33.8588 26.7885 29.6226L23.7329 32.5248ZM19.424 4.16051C16.5763 0.132837 10.878 -0.546675 7.43304 3.08025L10.4886 5.98257C11.9575 4.43607 14.5435 4.55756 15.983 6.59348L19.424 4.16051ZM4.71946 13.8509C4.65926 12.729 5.14775 11.6055 6.07879 10.6253L3.02322 7.72296C1.51774 9.30795 0.373474 11.5098 0.511252 14.0767L4.71946 13.8509ZM46.0348 49.8458C45.251 50.6713 44.4309 51.1135 43.6335 51.1921L44.0474 55.3862C46.1464 55.1789 47.845 54.0595 49.0905 52.7481L46.0348 49.8458ZM22.3337 19.7337C25.0522 16.8717 25.2447 12.3928 22.9667 9.17127L19.5257 11.6042C20.7118 13.2817 20.5299 15.5135 19.2781 16.8314L22.3337 19.7337ZM48.9901 39.2385C51.2962 40.566 51.7477 43.8315 50.026 45.6439L53.0816 48.5461C56.7478 44.6861 55.6802 38.2267 51.0925 35.5861L48.9901 39.2385ZM39.4119 36.7161C40.4947 35.576 42.1821 35.3197 43.6226 36.1488L45.7249 32.4964C42.6387 30.72 38.811 31.2293 36.3563 33.8138L39.4119 36.7161Z" fill="#DAF2FA"/>
</svg>
