<svg width="32" height="32" viewBox="0 0 32 32" fill="none" xmlns="http://www.w3.org/2000/svg">
<g clip-path="url(#clip0_97_913)">
<path d="M17.1431 1.90479C17.1431 1.90479 20.6989 2.22803 25.2243 6.75352C29.7497 11.279 30.073 14.8348 30.073 14.8348" stroke="#22C3F3" stroke-width="2" stroke-linecap="round"/>
<path d="M18.2202 7.29248C18.2202 7.29248 19.7288 7.72349 21.9915 9.98623C24.2542 12.249 24.6853 13.7575 24.6853 13.7575" stroke="#22C3F3" stroke-width="2" stroke-linecap="round"/>
<path d="M20.4107 22.5429L21.1048 21.8122L19.4475 20.2381L18.7534 20.9688L20.4107 22.5429ZM23.3885 21.5046L26.2997 23.1803L27.44 21.1993L24.5288 19.5236L23.3885 21.5046ZM26.8616 26.6544L24.6968 28.9334L26.3541 30.5075L28.5189 28.2285L26.8616 26.6544ZM23.3945 29.6636C21.2078 29.8796 15.5022 29.6953 9.30922 23.1753L7.65196 24.7494C14.4014 31.8553 20.8398 32.2127 23.6189 31.9384L23.3945 29.6636ZM9.30922 23.1753C3.40276 16.9567 2.41201 11.7114 2.28852 9.41075L0.00610295 9.53325C0.157341 12.3511 1.3538 18.1186 7.65196 24.7494L9.30922 23.1753ZM11.405 13.0616L11.842 12.6014L10.1848 11.0273L9.74771 11.4874L11.405 13.0616ZM12.1853 6.87266L10.2639 4.15496L8.39754 5.47454L10.319 8.19222L12.1853 6.87266ZM3.76029 3.56906L1.36852 6.08714L3.02579 7.66128L5.41755 5.1432L3.76029 3.56906ZM10.5763 12.2745C9.74771 11.4874 9.74666 11.4885 9.74559 11.4897C9.74523 11.49 9.74416 11.4912 9.74344 11.4919C9.742 11.4935 9.74052 11.4951 9.73902 11.4967C9.73602 11.4999 9.73291 11.5033 9.72971 11.5068C9.72333 11.5138 9.71655 11.5214 9.70942 11.5296C9.69517 11.546 9.6795 11.5648 9.66276 11.5859C9.62926 11.6283 9.59137 11.6803 9.55161 11.7424C9.4719 11.867 9.38544 12.031 9.31222 12.2368C9.16335 12.6552 9.08222 13.2092 9.1836 13.9012C9.38277 15.2606 10.2735 17.0887 12.6009 19.539L14.2582 17.9649C12.0828 15.6745 11.5469 14.2639 11.4452 13.5698C11.3961 13.2349 11.4459 13.0585 11.4657 13.0031C11.4767 12.9719 11.484 12.9633 11.4769 12.9744C11.4735 12.9797 11.4666 12.9898 11.4551 13.0044C11.4493 13.0117 11.4424 13.0201 11.4341 13.0296C11.4299 13.0344 11.4255 13.0394 11.4206 13.0448C11.4182 13.0474 11.4157 13.0502 11.4131 13.053C11.4118 13.0544 11.4105 13.0558 11.4091 13.0572C11.4084 13.0579 11.4074 13.059 11.4071 13.0594C11.406 13.0605 11.405 13.0616 10.5763 12.2745ZM12.6009 19.539C14.9215 21.9821 16.674 22.9426 18.0111 23.1597C18.6973 23.2711 19.2527 23.1821 19.6733 23.0163C19.8789 22.9353 20.0415 22.84 20.1635 22.7535C20.2245 22.7102 20.2752 22.6692 20.3161 22.6334C20.3366 22.6154 20.3546 22.5986 20.3703 22.5834C20.3782 22.5759 20.3855 22.5686 20.3922 22.5619C20.3956 22.5586 20.3988 22.5552 20.4018 22.552C20.4034 22.5505 20.4049 22.549 20.4064 22.5474C20.4072 22.5467 20.4082 22.5455 20.4086 22.5452C20.4096 22.5439 20.4107 22.5429 19.582 21.7558C18.7534 20.9688 18.7545 20.9677 18.7555 20.9666C18.7558 20.9662 18.7569 20.9651 18.7575 20.9644C18.7589 20.963 18.7603 20.9616 18.7616 20.9602C18.7644 20.9575 18.767 20.9548 18.7694 20.9522C18.7746 20.9471 18.7795 20.9423 18.784 20.9378C18.7932 20.929 18.8015 20.9214 18.8089 20.915C18.8233 20.9022 18.8342 20.894 18.8412 20.8891C18.8555 20.8789 18.854 20.8824 18.8346 20.89C18.8052 20.9016 18.6667 20.9505 18.3776 20.9036C17.7641 20.8039 16.4406 20.2625 14.2582 17.9649L12.6009 19.539ZM10.2639 4.15496C8.71937 1.97046 5.62875 1.60191 3.76029 3.56906L5.41755 5.1432C6.21426 4.30442 7.61682 4.37031 8.39754 5.47454L10.2639 4.15496ZM2.28852 9.41075C2.25587 8.80229 2.52081 8.19292 3.02579 7.66128L1.36852 6.08714C0.551992 6.94679 -0.0686245 8.14099 0.00610295 9.53325L2.28852 9.41075ZM24.6968 28.9334C24.2717 29.3811 23.8269 29.621 23.3945 29.6636L23.6189 31.9384C24.7573 31.8259 25.6786 31.2188 26.3541 30.5075L24.6968 28.9334ZM11.842 12.6014C13.3165 11.0492 13.4208 8.61995 12.1853 6.87266L10.319 8.19222C10.9623 9.10204 10.8637 10.3125 10.1848 11.0273L11.842 12.6014ZM26.2997 23.1803C27.5505 23.9003 27.7954 25.6714 26.8616 26.6544L28.5189 28.2285C30.5073 26.135 29.9282 22.6316 27.44 21.1993L26.2997 23.1803ZM21.1048 21.8122C21.6921 21.1938 22.6073 21.0549 23.3885 21.5046L24.5288 19.5236C22.8549 18.5601 20.7788 18.8364 19.4475 20.2381L21.1048 21.8122Z" fill="#22C3F3"/>
</g>
<defs>
<clipPath id="clip0_97_913">
<rect width="32" height="32" fill="white"/>
</clipPath>
</defs>
</svg>
