<svg width="56" height="56" viewBox="0 0 56 56" fill="none" xmlns="http://www.w3.org/2000/svg">
<path d="M34.6624 50.073C29.7964 51.7108 24.5363 51.7626 19.6389 50.2212C14.7415 48.6798 10.4593 45.6245 7.40853 41.495C4.35772 37.3655 2.69556 32.3746 2.66119 27.2405C2.62682 22.1064 4.22202 17.0937 7.21727 12.9237C10.2125 8.7537 14.4534 5.64137 19.3297 4.03452C24.206 2.42767 29.4664 2.40915 34.3539 3.98161C39.2414 5.55407 43.5041 8.63645 46.5286 12.7852C49.5532 16.934 51.1837 21.9354 51.1854 27.0696C51.107 29.0376 50.8688 30.996 50.473 32.9254" stroke="#DAF2FA" stroke-width="2"/>
<path d="M32.642 45.564C30.8966 47.5471 28.9831 49.3756 26.9229 51.0294" stroke="#DAF2FA" stroke-width="2"/>
<path d="M26.9229 2.52393C33.472 8.24591 37.5245 16.3017 38.2147 24.971C38.3564 26.5448 38.3858 28.1266 38.3026 29.7045" stroke="#DAF2FA" stroke-width="2"/>
<path d="M26.9232 2.52393C23.3698 5.62112 20.5151 9.43802 18.5482 13.7218C16.5813 18.0055 15.5471 22.6583 15.5142 27.3719C15.5142 43.1825 22.6192 47.8671 26.8939 51.0292" stroke="#DAF2FA" stroke-width="2"/>
<path d="M5.81299 15.114H48.1502" stroke="#DAF2FA" stroke-width="2"/>
<path d="M26.9229 2.51416V51.0292" stroke="#DAF2FA" stroke-width="2"/>
<path d="M6.47656 40.0791H31.8418" stroke="#DAF2FA" stroke-width="2"/>
<path d="M2.66064 27.3719L51.1855 26.7766" stroke="#DAF2FA" stroke-width="2"/>
<path d="M47.9748 51.322L52.2983 46.9888L44.4906 39.1811L48.9312 36.341C48.9959 36.3028 49.0475 36.2458 49.0791 36.1776C49.1107 36.1094 49.1208 36.0332 49.1081 35.9591C49.0954 35.885 49.0605 35.8165 49.008 35.7627C48.9555 35.7089 48.8879 35.6724 48.8141 35.6579L33.8917 32.1639C33.83 32.1514 33.7663 32.1543 33.706 32.1724C33.6458 32.1905 33.591 32.2233 33.5465 32.2677C33.5021 32.3122 33.4693 32.367 33.4512 32.4272C33.4331 32.4875 33.4302 32.5512 33.4427 32.6129L36.6829 47.8183C36.6985 47.8922 36.7357 47.9599 36.7898 48.0126C36.8439 48.0653 36.9125 48.1007 36.9868 48.1143C37.0611 48.1279 37.1378 48.1191 37.2071 48.089C37.2763 48.0588 37.3351 48.0088 37.3758 47.9452L40.1671 43.5143L47.9748 51.322Z" stroke="#DAF2FA" stroke-width="2"/>
</svg>
