<svg width="32" height="32" viewBox="0 0 32 32" fill="none" xmlns="http://www.w3.org/2000/svg">
<path d="M19.8072 28.6131C17.0267 29.5489 14.0209 29.5786 11.2224 28.6978C8.42385 27.817 5.9769 26.0711 4.23359 23.7114C2.49027 21.3516 1.54046 18.4997 1.52082 15.5659C1.50118 12.6321 2.41272 9.76775 4.12429 7.3849C5.83587 5.00204 8.25922 3.22357 11.0457 2.30537C13.8322 1.38717 16.8381 1.37659 19.6309 2.27513C22.4238 3.17368 24.8596 4.93504 26.5879 7.30578C28.3162 9.67652 29.2479 12.5344 29.249 15.4683C29.2042 16.5928 29.068 17.7119 28.8419 18.8144" stroke="#22C3F3" stroke-width="2"/>
<path d="M18.6528 26.0366C17.6555 27.1698 16.562 28.2147 15.3848 29.1597" stroke="#22C3F3" stroke-width="2"/>
<path d="M15.3848 1.44238C19.1272 4.71209 21.4428 9.31543 21.8373 14.2693C21.9182 15.1686 21.935 16.0725 21.8875 16.9741" stroke="#22C3F3" stroke-width="2"/>
<path d="M15.3847 1.44238C13.3542 3.21221 11.7229 5.39329 10.599 7.84115C9.47503 10.289 8.88407 12.9477 8.86523 15.6412C8.86523 24.6758 12.9252 27.3528 15.3679 29.1597" stroke="#22C3F3" stroke-width="2"/>
<path d="M3.32178 8.63672H27.5145" stroke="#22C3F3" stroke-width="2"/>
<path d="M15.3848 1.43652V29.1594" stroke="#22C3F3" stroke-width="2"/>
<path d="M3.70117 22.9023H18.1956" stroke="#22C3F3" stroke-width="2"/>
<path d="M1.52051 15.641L29.249 15.3008" stroke="#22C3F3" stroke-width="2"/>
<path d="M27.4139 29.3269L29.8845 26.8507L25.4229 22.3892L27.9604 20.7663C27.9974 20.7444 28.0269 20.7119 28.0449 20.6729C28.063 20.6339 28.0687 20.5904 28.0615 20.548C28.0542 20.5057 28.0343 20.4666 28.0043 20.4358C27.9743 20.4051 27.9356 20.3842 27.8935 20.3759L19.3664 18.3794C19.3312 18.3722 19.2947 18.3739 19.2603 18.3842C19.2259 18.3946 19.1946 18.4133 19.1692 18.4387C19.1438 18.4641 19.125 18.4954 19.1147 18.5298C19.1043 18.5643 19.1027 18.6007 19.1098 18.6359L20.9614 27.3248C20.9703 27.367 20.9915 27.4056 21.0225 27.4357C21.0534 27.4659 21.0926 27.4861 21.135 27.4939C21.1775 27.5016 21.2213 27.4966 21.2609 27.4794C21.3005 27.4622 21.3341 27.4336 21.3573 27.3973L22.9523 24.8653L27.4139 29.3269Z" stroke="#22C3F3" stroke-width="2"/>
</svg>
